<svg width="572" height="559" viewBox="0 0 572 559" fill="none" xmlns="http://www.w3.org/2000/svg">
<path opacity="0.1" fill-rule="evenodd" clip-rule="evenodd" d="M572 536.64L572 514.284L553.752 512.259C530.37 509.669 495.503 499.503 475.887 489.563C467.449 485.285 443.003 469.847 421.566 455.257C357.966 411.969 327.862 399.569 286.384 399.569C243.913 399.569 213.536 412.553 153.617 456.317C112.247 486.535 90.6419 498.926 67.6276 505.629C58.1483 508.393 49.2244 510.653 47.7931 510.653C46.365 510.653 45.1972 498.059 45.1972 482.669L45.1972 454.683L63.4449 449.005C88.595 441.181 125.693 422.16 165.534 396.665C232.764 353.641 252.5 345.274 287.076 345.138C322.683 344.998 340.899 353.136 413.924 401.819C442.778 421.053 473.472 438.785 486.915 443.987C508.914 452.493 515.55 453.876 555.339 458.256L572 460.091L572 388.794L572 317.5L553.752 313.895C509.663 305.189 486.528 294.541 429.192 256.566C365.668 214.497 328.493 199.618 286.895 199.618C247.699 199.618 215.612 212.904 148.336 256.991C102.635 286.943 63.2894 307.528 51.7536 307.528C45.6478 307.528 45.1972 305.694 45.1972 280.798L45.1972 254.065L57.0978 250.206C76.6625 243.858 116.665 222.819 156.178 198.088C227.144 153.674 252.678 144.098 294.308 146.282C327.383 148.018 350.489 158.596 418.875 203.309C446.024 221.06 478.477 239.561 490.987 244.416C512.938 252.941 545.181 259.848 563.273 259.895L572 259.921L572 188.789L572 117.657L558.69 115.407C524.934 109.703 489.86 93.1868 433.952 56.6655C387.381 26.2444 355.09 10.6355 325.961 4.46242C266.54 -8.12497 223.022 4.4656 130.882 60.8994C82.505 90.5303 48.3643 106.257 21.8052 111.148L1.54644e-05 115.162L1.61854 135.351C2.5103 146.456 4.10339 156.403 5.16017 157.46C8.78432 161.085 50.2431 151.665 75.482 141.48C89.3724 135.878 125.519 116.464 155.81 98.3347C273.871 27.6885 305.958 27.1172 408.612 93.812C456.538 124.954 477.061 136.132 506.851 147.316L525.984 154.502L526.901 181.822C527.469 198.71 526.593 209.139 524.61 209.139C515.759 209.139 481 190.217 436.977 161.434C361.853 112.315 332.755 100.848 283.458 100.928C237.975 100.998 204.482 114.074 132.469 159.863C84.8883 190.119 55.6285 204.41 25.7055 212.005L2.35478 217.934L1.50112 288.123L0.647465 358.309L17.6543 358.309C59.0464 358.309 104.986 339.489 172.138 295.017C236.842 252.167 262.868 241.827 297.799 245.089C326.012 247.724 349.673 258.473 401.268 292.091C451.67 324.933 480.863 340.463 507.905 348.816L525.984 354.402L526.901 381.748C527.463 398.496 526.587 409.091 524.639 409.091C513.106 409.091 479.337 391.289 436.307 362.524C358.845 310.737 333.533 300.082 287.971 300.082C245.37 300.082 209.918 314.199 141.989 358.205C92.6729 390.156 59.4748 405.676 27.5525 411.703L0.768045 416.759L0.768052 487.51L0.768058 558.261L17.9431 558.261C68.3036 558.261 118.705 538.246 176.898 495.146C242.704 446.405 275.235 436.141 320.414 449.865C336.706 454.816 355.262 465.144 392.046 489.738C419.348 507.993 450.677 527.22 461.663 532.464C486.163 544.159 522.052 554.004 550.579 556.858L572 559L572 536.64Z" fill="#353535"/>
</svg>
